<?xml version="1.0" encoding="utf-8"?>
<!-- Generator: Adobe Illustrator 24.3.0, SVG Export Plug-In . SVG Version: 6.00 Build 0)  -->
<svg version="1.1" id="Layer_1" xmlns="http://www.w3.org/2000/svg" xmlns:xlink="http://www.w3.org/1999/xlink" x="0px" y="0px"
	 viewBox="0 0 100 100" style="enable-background:new 0 0 100 100;" xml:space="preserve">
<style type="text/css">
	.st0{fill:url(#SVGID_1_);}
	.st1{fill:url(#SVGID_2_);}
	.st2{fill:url(#SVGID_3_);}
	.st3{fill:url(#SVGID_4_);}
	.st4{fill:url(#SVGID_5_);}
	.st5{fill:url(#SVGID_6_);}
	.st6{fill:url(#SVGID_7_);}
	.st7{opacity:0.95;}
	.st8{fill:#FFFFFF;}
</style>
<g>
	<linearGradient id="SVGID_1_" gradientUnits="userSpaceOnUse" x1="-0.2553" y1="22.5422" x2="100.3433" y2="22.5422">
		<stop  offset="1.271566e-07" style="stop-color:#C7238D"/>
		<stop  offset="0.1737" style="stop-color:#B21E97"/>
		<stop  offset="0.5322" style="stop-color:#8C16A8"/>
		<stop  offset="0.8203" style="stop-color:#7511B3"/>
		<stop  offset="1" style="stop-color:#6C0FB7"/>
	</linearGradient>
	<path class="st0" d="M46,34.3H28.7C22.3,34.3,17,29,17,22.5v0c0-6.5,5.3-11.7,11.7-11.7H46c4.4,0,7.9,3.5,7.9,7.9v7.7
		C53.9,30.7,50.4,34.3,46,34.3z"/>
	<linearGradient id="SVGID_2_" gradientUnits="userSpaceOnUse" x1="-0.2553" y1="77.4578" x2="100.3433" y2="77.4578">
		<stop  offset="1.271566e-07" style="stop-color:#C7238D"/>
		<stop  offset="0.1737" style="stop-color:#B21E97"/>
		<stop  offset="0.5322" style="stop-color:#8C16A8"/>
		<stop  offset="0.8203" style="stop-color:#7511B3"/>
		<stop  offset="1" style="stop-color:#6C0FB7"/>
	</linearGradient>
	<path class="st1" d="M46,89.2H28.7c-6.5,0-11.7-5.3-11.7-11.7v0c0-6.5,5.3-11.7,11.7-11.7H46c4.4,0,7.9,3.5,7.9,7.9v7.7
		C53.9,85.7,50.4,89.2,46,89.2z"/>
	<linearGradient id="SVGID_3_" gradientUnits="userSpaceOnUse" x1="0.8623" y1="50" x2="76.339" y2="50">
		<stop  offset="1.271566e-07" style="stop-color:#C7238D"/>
		<stop  offset="0.1737" style="stop-color:#B21E97"/>
		<stop  offset="0.5322" style="stop-color:#8C16A8"/>
		<stop  offset="0.8203" style="stop-color:#7511B3"/>
		<stop  offset="1" style="stop-color:#6C0FB7"/>
	</linearGradient>
	<path class="st2" d="M32.1,63.1H16C8.8,63.1,2.9,57.2,2.9,50v0c0-7.2,5.9-13.1,13.1-13.1h16.1c5.8,0,10.6,4.7,10.6,10.6v5
		C42.7,58.4,38,63.1,32.1,63.1z"/>
	<linearGradient id="SVGID_4_" gradientUnits="userSpaceOnUse" x1="-0.2553" y1="77.4578" x2="100.3433" y2="77.4578">
		<stop  offset="1.271566e-07" style="stop-color:#C7238D"/>
		<stop  offset="0.1737" style="stop-color:#B21E97"/>
		<stop  offset="0.5322" style="stop-color:#8C16A8"/>
		<stop  offset="0.8203" style="stop-color:#7511B3"/>
		<stop  offset="1" style="stop-color:#6C0FB7"/>
	</linearGradient>
	<circle class="st3" cx="71.8" cy="77.5" r="11.6"/>
	<linearGradient id="SVGID_5_" gradientUnits="userSpaceOnUse" x1="-0.2553" y1="50" x2="100.3433" y2="50">
		<stop  offset="1.271566e-07" style="stop-color:#C7238D"/>
		<stop  offset="0.1737" style="stop-color:#B21E97"/>
		<stop  offset="0.5322" style="stop-color:#8C16A8"/>
		<stop  offset="0.8203" style="stop-color:#7511B3"/>
		<stop  offset="1" style="stop-color:#6C0FB7"/>
	</linearGradient>
	<circle class="st4" cx="84" cy="50" r="13.1"/>
	<linearGradient id="SVGID_6_" gradientUnits="userSpaceOnUse" x1="-0.2553" y1="22.5422" x2="100.3433" y2="22.5422">
		<stop  offset="1.271566e-07" style="stop-color:#C7238D"/>
		<stop  offset="0.1737" style="stop-color:#B21E97"/>
		<stop  offset="0.5322" style="stop-color:#8C16A8"/>
		<stop  offset="0.8203" style="stop-color:#7511B3"/>
		<stop  offset="1" style="stop-color:#6C0FB7"/>
	</linearGradient>
	<circle class="st5" cx="71.8" cy="22.5" r="11.6"/>
</g>
</svg>
